<svg width="21" height="28" viewBox="0 0 21 28" fill="none" xmlns="http://www.w3.org/2000/svg">
<path d="M16.3847 7.47833C16.6272 7.79709 16.7687 8.2367 16.7781 8.70051C16.7876 9.16432 16.6642 9.61435 16.4351 9.95167L9.30398 20.4517C9.18841 20.6215 9.04952 20.7575 8.89553 20.8514C8.74154 20.9454 8.57557 20.9955 8.40742 20.9988C8.23928 21.002 8.07236 20.9584 7.91655 20.8704C7.76073 20.7825 7.61917 20.652 7.50024 20.4867L3.72496 15.2367C3.50267 14.9049 3.38165 14.4662 3.3874 14.0128C3.39316 13.5594 3.52523 13.1268 3.75579 12.8062C3.98636 12.4856 4.29742 12.3019 4.62343 12.2939C4.94945 12.2859 5.26498 12.4542 5.50353 12.7633L8.36436 16.7393L14.6062 7.54833C14.8354 7.21116 15.1515 7.01438 15.485 7.00125C15.8185 6.98812 16.1422 7.15973 16.3847 7.47833Z" fill="white"/>
</svg>
