<svg width="20" height="28" viewBox="0 0 20 28" fill="none" xmlns="http://www.w3.org/2000/svg">
<path d="M12.8112 13.88C14.9264 14.0133 16.6533 14.6933 17.992 15.92C19.3307 17.12 20 18.68 20 20.6C20 22.68 19.2503 24.44 17.751 25.88C16.2517 27.2933 14.3641 28 12.0884 28H0V0H10.8835C13.1593 0 15.0469 0.706667 16.5462 2.12C18.0455 3.53333 18.7952 5.28 18.7952 7.36C18.7952 9.12 18.2463 10.5733 17.1486 11.72C16.0509 12.8667 14.6051 13.5867 12.8112 13.88ZM10.8032 2.04H2.20884V13H10.8032C12.4632 13 13.842 12.4667 14.9398 11.4C16.0643 10.3333 16.6265 9.02667 16.6265 7.48C16.6265 5.96 16.0643 4.68 14.9398 3.64C13.842 2.57333 12.4632 2.04 10.8032 2.04ZM2.20884 25.96H11.9277C13.6145 25.96 15.0067 25.4267 16.1044 24.36C17.2021 23.2933 17.751 21.9867 17.751 20.44C17.751 18.8933 17.2021 17.6 16.1044 16.56C15.0067 15.52 13.6145 15 11.9277 15H2.20884V25.96Z" fill="white"/>
<path d="M7.54577 8.70669L1.73137 8.7067L1.73137 6.66669L17.3494 6.66667V8.70669H9.7546V20.1867C9.7546 21.84 10.1027 23.0134 10.7988 23.7067C11.4949 24.4 12.6596 24.7467 14.2928 24.7467H17.9072L16.1803 26.7867H14.2928C11.9902 26.7867 10.2901 26.2533 9.19235 25.1867C8.09463 24.0934 7.54577 22.4133 7.54577 20.1467V8.70669Z" fill="white"/>
</svg>
