<svg width="48" height="48" viewBox="0 0 48 48" fill="none" xmlns="http://www.w3.org/2000/svg">
<path d="M25.9275 42.7288C22.6438 43.1366 19.3151 42.5059 16.406 40.9248C13.4969 39.3438 11.1527 36.8913 9.70058 33.9096C8.24844 30.928 7.76086 27.566 8.3059 24.2931C8.85094 21.0201 10.4014 17.9995 12.7408 15.6529L23.1456 5.21829C23.3654 4.99816 23.6633 4.87451 23.974 4.87451C24.2846 4.87451 24.5825 4.99816 24.8023 5.21829L35.2071 15.6529C37.2764 17.7268 38.7344 20.3335 39.4204 23.1855C40.1064 26.0376 39.9937 29.0243 39.0947 31.8162M31.7883 39.6529L35.6955 43.5713L43.5098 35.7345" stroke="white" stroke-width="3" stroke-linecap="round" stroke-linejoin="round"/>
</svg>
