<svg width="48" height="53" viewBox="0 0 48 53" fill="none" xmlns="http://www.w3.org/2000/svg">
<path d="M10.4027 3.34033V9.11392H38.5307V3.34033H10.4027ZM12.2116 11.0235C12.1397 11.5685 12.0273 11.9197 11.91 12.154C11.7157 12.5425 11.4902 12.7073 11.0861 13.0289C10.6822 13.3505 10.1165 13.837 9.73957 14.6864C9.36261 15.5356 9.1626 16.6757 9.1626 18.3938V44.0843C9.16241 47.3891 11.5773 50.0719 14.5486 50.0719H34.1611C37.1322 50.0719 39.5443 47.389 39.5443 44.0843V18.3938C39.5443 16.5883 39.3602 15.4073 39.0103 14.5298C38.6604 13.6523 38.112 13.1339 37.7154 12.8118C37.3188 12.4896 37.1145 12.3474 36.9403 12.0039C36.8396 11.8056 36.7407 11.4991 36.6731 11.0234H34.9421C35.0262 11.8274 35.1917 12.4448 35.4444 12.9425C35.824 13.6905 36.36 14.0763 36.7019 14.3541C37.0439 14.6318 37.2357 14.7904 37.4397 15.3024C37.6439 15.8144 37.8274 16.7392 37.8274 18.3936V44.0841C37.8274 46.3685 36.215 48.162 34.161 48.162H14.5486C12.4947 48.162 10.8793 46.3686 10.8793 44.0841V18.3938C10.8793 16.8451 11.072 16.0005 11.2813 15.5295C11.4905 15.058 11.7076 14.8847 12.0852 14.5842C12.4628 14.2835 13.017 13.8661 13.4088 13.0831C13.675 12.5511 13.8523 11.887 13.9398 11.0235H12.2116ZM29.1912 11.2565L13.2509 30.0687H23.1187L17.678 46.3451L35.6396 24.9945H24.8902L29.1912 11.2566V11.2565Z" fill="white"/>
</svg>
