<svg width="48" height="48" viewBox="0 0 48 48" fill="none" xmlns="http://www.w3.org/2000/svg">
<path d="M24.0409 8.30577C20.5534 8.30577 17.1444 9.33991 14.2447 11.2774C11.345 13.2149 9.08499 15.9687 7.75042 19.1907C6.41584 22.4126 6.06666 25.958 6.74702 29.3784C7.42738 32.7988 9.10672 35.9406 11.5727 38.4066C14.0387 40.8725 17.1805 42.5519 20.6009 43.2323C24.0213 43.9126 27.5666 43.5634 30.7886 42.2289C34.0105 40.8943 36.7644 38.6343 38.7019 35.7346C40.6394 32.8349 41.6735 29.4258 41.6735 25.9384C41.6681 21.2636 39.8087 16.7818 36.5031 13.4762C33.1975 10.1706 28.7157 8.31112 24.0409 8.30577ZM24.0409 40.6323C21.1347 40.6323 18.2938 39.7705 15.8774 38.1559C13.461 36.5413 11.5776 34.2465 10.4655 31.5615C9.35334 28.8766 9.06236 25.9221 9.62932 23.0718C10.1963 20.2215 11.5957 17.6033 13.6507 15.5483C15.7057 13.4933 18.3239 12.0938 21.1742 11.5269C24.0246 10.9599 26.979 11.2509 29.6639 12.363C32.3489 13.4752 34.6438 15.3585 36.2584 17.7749C37.8729 20.1913 38.7347 23.0322 38.7347 25.9384C38.7303 29.8341 37.1808 33.569 34.4262 36.3237C31.6715 39.0784 27.9366 40.6279 24.0409 40.6323ZM32.4274 17.5519C32.564 17.6884 32.6724 17.8504 32.7463 18.0288C32.8203 18.2072 32.8583 18.3984 32.8583 18.5915C32.8583 18.7846 32.8203 18.9758 32.7463 19.1542C32.6724 19.3325 32.564 19.4946 32.4274 19.6311L25.0804 26.978C24.9439 27.1145 24.7818 27.2228 24.6035 27.2967C24.4251 27.3706 24.2339 27.4086 24.0409 27.4086C23.8478 27.4086 23.6566 27.3706 23.4782 27.2967C23.2999 27.2228 23.1378 27.1145 23.0013 26.978C22.8647 26.8415 22.7564 26.6794 22.6826 26.501C22.6087 26.3227 22.5706 26.1315 22.5706 25.9384C22.5706 25.7453 22.6087 25.5542 22.6826 25.3758C22.7564 25.1974 22.8647 25.0353 23.0013 24.8988L30.3482 17.5519C30.4847 17.4153 30.6467 17.3069 30.8251 17.2329C31.0035 17.159 31.1947 17.1209 31.3878 17.1209C31.5809 17.1209 31.7721 17.159 31.9505 17.2329C32.1289 17.3069 32.2909 17.4153 32.4274 17.5519ZM18.1633 3.89761C18.1633 3.5079 18.3181 3.13416 18.5937 2.8586C18.8692 2.58303 19.243 2.42822 19.6327 2.42822H28.449C28.8387 2.42822 29.2125 2.58303 29.488 2.8586C29.7636 3.13416 29.9184 3.5079 29.9184 3.89761C29.9184 4.28732 29.7636 4.66106 29.488 4.93662C29.2125 5.21219 28.8387 5.367 28.449 5.367H19.6327C19.243 5.367 18.8692 5.21219 18.5937 4.93662C18.3181 4.66106 18.1633 4.28732 18.1633 3.89761Z" fill="white"/>
</svg>
